<svg xmlns="http://www.w3.org/2000/svg" version="1.1" xmlns:xlink="http://www.w3.org/1999/xlink" xmlns:svgjs="http://svgjs.com/svgjs" width="1440" height="560" preserveAspectRatio="none" viewBox="0 0 1440 560"><g mask="url(&quot;#SvgjsMask1012&quot;)" fill="none"><rect width="1440" height="560" x="0" y="0" fill="url(#SvgjsLinearGradient1013)"></rect><path d="M1512 560L0 560 L0 315.04Q67.77 310.81, 72 378.59Q111.31 297.89, 192 337.2Q218.63 291.83, 264 318.46Q311.62 246.08, 384 293.7Q438.3 276, 456 330.29Q503.34 305.63, 528 352.98Q596.21 301.19, 648 369.4Q679.88 281.28, 768 313.17Q842.75 267.92, 888 342.67Q950.64 333.31, 960 395.95Q973.59 289.53, 1080 303.12Q1147.12 250.24, 1200 317.35Q1278.01 275.36, 1320 353.37Q1382.51 343.88, 1392 406.39Q1398.18 292.57, 1512 298.76z" fill="#182f5d"></path><path d="M1488 560L0 560 L0 373.84Q45.24 347.07, 72 392.31Q162.34 362.65, 192 453Q206.43 395.43, 264 409.86Q293.24 367.1, 336 396.34Q398.06 386.4, 408 448.47Q488.03 408.5, 528 488.53Q594.47 435, 648 501.46Q650.63 432.09, 720 434.72Q768.48 363.2, 840 411.68Q862.71 362.39, 912 385.1Q1001.97 403.07, 984 493.04Q982.16 419.21, 1056 417.37Q1106.64 348.01, 1176 398.65Q1271.14 373.79, 1296 468.93Q1348.14 449.07, 1368 501.21Q1368.82 382.02, 1488 382.84z" fill="#25467d"></path><path d="M1464 560L0 560 L0 581.35Q53.55 514.9, 120 568.46Q193.77 522.23, 240 596Q245.88 481.88, 360 487.77Q409.83 417.6, 480 467.43Q565.88 433.3, 600 519.18Q666.17 513.35, 672 579.51Q693.74 529.25, 744 550.98Q769.91 456.89, 864 482.81Q910.65 457.47, 936 504.12Q1026.01 474.13, 1056 564.15Q1067.47 503.62, 1128 515.09Q1171.87 486.96, 1200 530.82Q1265.22 476.05, 1320 541.27Q1370.4 519.67, 1392 570.08Q1421.36 527.44, 1464 556.81z" fill="#356cb1"></path></g><defs><mask id="SvgjsMask1012"><rect width="1440" height="560" fill="#ffffff"></rect></mask><linearGradient x1="84.72%" y1="139.29%" x2="15.28%" y2="-39.29%" gradientUnits="userSpaceOnUse" id="SvgjsLinearGradient1013"><stop stop-color="#0e2a47" offset="0"></stop><stop stop-color="#00459e" offset="1"></stop></linearGradient></defs></svg>