<svg xmlns="http://www.w3.org/2000/svg" version="1.1" xmlns:xlink="http://www.w3.org/1999/xlink" xmlns:svgjs="http://svgjs.com/svgjs" width="1440" height="560" preserveAspectRatio="none" viewBox="0 0 1440 560"><g mask="url(&quot;#SvgjsMask1011&quot;)" fill="none"><rect width="1440" height="560" x="0" y="0" fill="url(#SvgjsLinearGradient1012)"></rect><path d="M720 666.89C832.91 677.63 959.12 679.5 1040.55 600.55 1122.66 520.96 1119.23 394.38 1119.13 280 1119.02 165.79 1118.24 43.19 1039.91-39.91 959.97-124.7 836.04-153.94 720-143.37 613.27-133.64 524.06-67.17 453.44 13.44 388.09 88.04 348.82 180.82 349.13 280 349.43 378.87 386.77 473.46 455.17 544.83 525.11 617.76 619.39 657.3 720 666.89" fill="#1c538e"></path><path d="M720 530.34C793.06 537.29 874.73 538.5 927.42 487.42 980.55 435.91 978.32 354.01 978.26 280 978.19 206.1 977.69 126.77 927 73 875.28 18.13 795.09-0.79 720 6.06 650.94 12.35 593.21 55.36 547.52 107.52 505.24 155.79 479.83 215.83 480.02 280 480.22 343.98 504.38 405.18 548.64 451.36 593.9 498.55 654.9 524.13 720 530.34" fill="#2774c6"></path><path d="M720 393.79C753.21 396.95 790.33 397.5 814.28 374.28 838.43 350.87 837.42 313.64 837.39 280 837.36 246.41 837.13 210.35 814.09 185.91 790.58 160.97 754.13 152.37 720 155.48 688.61 158.34 662.37 177.89 641.6 201.6 622.38 223.54 610.83 250.83 610.92 280 611.01 309.08 621.99 336.9 642.11 357.89 662.68 379.34 690.41 390.97 720 393.79" fill="#488fdb"></path></g><defs><mask id="SvgjsMask1011"><rect width="1440" height="560" fill="#ffffff"></rect></mask><linearGradient x1="84.72%" y1="139.29%" x2="15.28%" y2="-39.29%" gradientUnits="userSpaceOnUse" id="SvgjsLinearGradient1012"><stop stop-color="#0e2a47" offset="0"></stop><stop stop-color="#00459e" offset="1"></stop></linearGradient></defs></svg>