<svg xmlns="http://www.w3.org/2000/svg" version="1.1" xmlns:xlink="http://www.w3.org/1999/xlink" xmlns:svgjs="http://svgjs.com/svgjs" width="1440" height="560" preserveAspectRatio="none" viewBox="0 0 1440 560"><g mask="url(&quot;#SvgjsMask1023&quot;)" fill="none"><rect width="1440" height="560" x="0" y="0" fill="url(#SvgjsLinearGradient1024)"></rect><circle r="5.305" cx="378.46500000000003" cy="533.785" filter="url(#SvgjsFilter1025)" fill="rgba(51, 121, 194, 0.58)"></circle><circle r="7.63" cx="585.84" cy="318.08" filter="url(#SvgjsFilter1025)" fill="rgba(51, 121, 194, 0.58)"></circle><circle r="4.795" cx="242.825" cy="230.515" filter="url(#SvgjsFilter1025)" fill="rgba(51, 121, 194, 0.58)"></circle><circle r="8.6" cx="776.5" cy="503.86" filter="url(#SvgjsFilter1025)" fill="rgba(51, 121, 194, 0.58)"></circle><circle r="6.505" cx="426.775" cy="199.085" filter="url(#SvgjsFilter1025)" fill="rgba(51, 121, 194, 0.58)"></circle><circle r="6.605" cx="666.575" cy="8.985" filter="url(#SvgjsFilter1025)" fill="rgba(51, 121, 194, 0.58)"></circle><circle r="5.32" cx="89.03999999999999" cy="262.34999999999997" filter="url(#SvgjsFilter1025)" fill="rgba(51, 121, 194, 0.58)"></circle><circle r="5.755" cx="638.425" cy="564.035" filter="url(#SvgjsFilter1025)" fill="rgba(51, 121, 194, 0.58)"></circle><circle r="5.98" cx="810.29" cy="247.97" filter="url(#SvgjsFilter1025)" fill="rgba(51, 121, 194, 0.58)"></circle><circle r="6.74" cx="1399.79" cy="103.50999999999999" filter="url(#SvgjsFilter1025)" fill="rgba(51, 121, 194, 0.58)"></circle><circle r="8.055" cx="58.595" cy="268.945" filter="url(#SvgjsFilter1025)" fill="rgba(51, 121, 194, 0.58)"></circle><circle r="8.125" cx="1062.335" cy="373.935" filter="url(#SvgjsFilter1025)" fill="rgba(51, 121, 194, 0.58)"></circle><circle r="8.255" cx="211.055" cy="490.755" filter="url(#SvgjsFilter1025)" fill="rgba(51, 121, 194, 0.58)"></circle><circle r="7.075" cx="300.515" cy="68.925" filter="url(#SvgjsFilter1025)" fill="rgba(51, 121, 194, 0.58)"></circle><circle r="6.15" cx="661.5699999999999" cy="171.78" filter="url(#SvgjsFilter1025)" fill="rgba(51, 121, 194, 0.58)"></circle><circle r="5.03" cx="261.55999999999995" cy="49.42" filter="url(#SvgjsFilter1025)" fill="rgba(51, 121, 194, 0.58)"></circle><circle r="9.055" cx="440.475" cy="498.915" filter="url(#SvgjsFilter1025)" fill="rgba(51, 121, 194, 0.58)"></circle><circle r="8.795" cx="139.605" cy="177.045" filter="url(#SvgjsFilter1025)" fill="rgba(51, 121, 194, 0.58)"></circle><circle r="7.275" cx="461.185" cy="535.905" filter="url(#SvgjsFilter1025)" fill="rgba(51, 121, 194, 0.58)"></circle><circle r="4.81" cx="35.97" cy="19.22" filter="url(#SvgjsFilter1025)" fill="rgba(51, 121, 194, 0.58)"></circle><path d="M664.1 474.8L707.9 445.1 722.4 447.5 733.2 478.3 723.7 489.7 670.7 493.5C670.1 493.7 670.1 493.7 669.5 493.9 668.3 494.3 667.3 495.4 667.3 497.4 668 499.2 669 500.2 671 500.2L717.3 496.7 702.4 514.2 682 516C682 516 681.4 516.2 681.4 516.2 680.2 516.6 679.2 517.6 679.3 519.7 679.1 521.1 680.9 522.5 682.9 522.4L696.3 521.8 685.2 534.5C684.2 535.6 684.2 537.6 685.5 539.2S689.1 539.9 690.7 538.7L701.2 526.2 702.5 539.3C702.5 541.3 704.3 542.7 706.4 542.7 707.6 542.2 709.2 541 709.1 539L707.4 518.6 722.9 500.9 726.3 547.2C726.3 549.2 728.2 550.6 729.6 550.8 731.4 550.1 733 548.9 733 546.9L728.6 494.1 738.7 482.4 770 488.4 775.1 502.8 752.7 550.8C751.9 552.4 752.5 554.2 754.1 555S757.6 555.2 758.4 553.5L778.1 511.3 786 533.6 777.4 551.6C776.6 553.2 777.2 555 779.1 556.4S782.5 556.6 783.3 554.9L788.9 542.1 794.7 558.4C795.3 560.2 797.6 560.8 799.4 560.1 801.2 559.5 802 557.8 801.3 556L795.6 539.7 807.8 545.6C809.7 547 811.5 546.3 812.1 544.1 812.8 542.5 812.2 540.7 810.6 539.9L792.6 531.3 784.7 508.9 826.6 529.5C828.2 530.3 830.6 529.4 831.4 527.8S831.6 524.3 829.9 523.6L781.8 500.5 776.7 486 797.9 461.6 812.5 464.6 842.2 508.4C843.5 510 845.5 509.9 847.3 509.3 848.9 508.1 848.9 506 848.2 504.2L821.9 466 844.4 470.3 855.8 487.3C857.1 488.9 859.1 488.9 860.9 488.2 861.9 487.2 862.5 485 861.2 483.4L853.9 472.3 870.6 475.3C872 475.5 873.6 474.2 874.4 472.6 874.4 470.6 873.1 469 871.7 468.8L855.1 465.9 866.5 457.8C867.4 456.7 868 454.5 867 453.5 866.3 451.7 864.9 451.5 863.1 452.2 863.1 452.2 862.5 452.4 862.5 452.4L845.5 463.8 823 459.5 861.2 433.2C862.8 431.9 863.6 430.3 862.3 428.7 861.1 427.1 859.7 426.9 858.4 427.3 857.8 427.5 857.8 427.5 857.8 427.5L813.6 458.1 799 455.1 788.2 424.3 797.9 413.4 851.2 408.8C852.7 409 854.1 407.2 854.2 405.7 854.2 403.7 852.4 402.3 850.3 402.4L804 405.8 818.9 388.3 839.3 386.6C841.4 386.5 843 385.3 842.3 383.5 842.3 381.5 840.4 380.1 839 379.9L825.3 381.3 836.4 368.6C837.2 367 837.1 365 835.9 363.4 835.1 363 833.7 362.8 832.5 363.2 831.9 363.4 831.9 363.4 831.5 364.2L820.3 377 818.9 363.2C818.9 361.2 817.2 360.4 815.8 360.3 815.2 360.5 815.2 360.5 814.6 360.7 813.4 361.1 812.4 362.1 812.2 363.6L814 384 799.1 401.4 795.7 355.1C795 353.3 793.8 351.7 792 352.4 791.2 352 791.2 352 790.6 352.2 789.4 352.6 788.6 354.2 788.4 355.7L793 409 783.2 419.9 751.3 414.2 746.5 400.3 769.5 352.1C770.3 350.5 769.4 348.1 767.8 347.3S763.8 347.4 763 349L743.3 391.2 735.6 369.5 744 350.9C744.8 349.3 744.1 347.5 742.5 346.7 740.9 345.9 739.1 346.6 738.3 348.2L732.4 360.5 726.7 344.2C726.2 343 724.4 341.6 722.6 342.2 720.8 342.8 719.6 345.3 720 346.5L725.8 362.8 713.5 356.9C712.7 356.5 711.9 356.2 711.3 356.4 710.1 356.8 709.7 357.6 709.3 358.4 708.5 360.1 709.2 361.9 710.8 362.6L729 371.9 736.6 393.6 694.8 373C694 372.7 693.4 372.9 692.2 373.3 691.5 373.5 690.9 373.7 690.6 374.5 689.8 376.2 690.6 378.6 692.3 379.4L739.8 402.6 744.7 416.5 724.1 440.8 709.1 438.6 679.1 394.2C678.1 393.2 676.5 392.4 675.3 392.8 674.7 393 674.7 393 674.9 393.6 673.1 394.3 672.5 396.5 673.7 398.1L700.1 436.3 677 432.2 665.5 415.2C664.5 414.2 663.1 414.1 661.9 414.5 661.9 414.5 661.3 414.7 661.3 414.7 659.5 415.3 658.9 417.6 660.1 419.2L668.2 430.6 651.6 427.6C650.8 427.2 650.2 427.4 649.6 427.7 648.3 428.1 647.4 429.1 647.6 429.7 647 431.9 648.2 433.5 649.9 434.3L666.5 437.3 655.5 444.6C653.9 445.8 653.3 448 654.6 449.6 655.6 450.6 657.9 451.2 658.8 450.2L675.9 438.7 698.4 443 660.2 469.4C658.6 470.6 658.6 472.6 659.3 474.4 660.3 475.4 662.5 476 664.1 474.8ZM738.6 472.3L730.3 448.7 729 445.1 731.4 442.3 747.3 423.8 750.2 420.7 753.9 421.4 777.9 425.9 781.5 426.6 782.8 430.2 791.1 453.8 792.4 457.4 790 460.3 774.1 478.8 771.7 481.6 767.5 481.1 743.5 476.7 739.8 475.9 738.6 472.3Z" fill="rgba(51, 121, 194, 0.58)"></path><path d="M424.6 232L412.1 283.6 371.5 308 370.7 260.6 407.8 222.7C407.8 222.7 408.1 222.1 408.1 222.1 408.7 221 408.2 219.3 407.4 218.1 406 216.6 403.7 216.8 402.8 218.5L370.5 251.8 370 228.8 384.1 213.9C384.1 213.9 384.4 213.4 384.4 213.4 385 212.3 384.5 210.5 383.7 209.3 382.3 207.9 380 208 379.1 209.7L369.2 219.6 369.1 202.7C369.1 201.3 367.2 199.5 365.8 199.4 363.8 199.1 362.6 201.3 362.5 202.7L362.6 219.6 352.7 209.8C351.4 208.3 349.1 208.5 348.1 210.1 346.7 211.5 346.8 213.8 348.5 214.7L363.4 228.8 363.3 251.5 330 219.1C328.6 217.6 326.3 217.8 325.4 219.5 323.9 220.9 324.1 223.2 325.8 224.1L363.8 261.2 364.6 308.5 322.6 285.3 307.9 234C307.4 232.2 305.7 231.3 304 231.8 302.2 232.3 301.3 234 301.8 235.7L314.8 280.9 294.6 269.8 289.2 250.6C288.7 248.9 287 248 285.2 248.5 283.5 249 282.6 250.6 283.1 252.4L286.8 265.4 271.1 256.8C269.8 255.3 267.7 256.3 266.8 258 265.9 259.7 266.4 261.4 268 262.4L282.6 270.4 269.5 274.2C267.8 274.7 266.9 276.3 267.4 278.1S269.6 280.8 271.3 280.3L290.4 274.8 310.6 285.9 265.4 298.9C263.6 299.4 262.7 301.1 263.2 302.8 263.7 304.6 265.4 305.5 267.1 305L318.4 290.3 359.9 313.2 319.3 337.6 269.1 325.1C267.1 324.8 265.6 326.1 264.7 327.8 264.3 329.8 265.7 331.3 267.4 332.2L312.5 343.3 292.8 355.1 272.9 349.9C271 349.6 269.5 350.9 268.5 352.6 268.2 354.6 269.5 356.1 270.7 356.7L284.3 359.9 269.9 368.7C268.7 369.5 267.4 371.8 268.8 373.3 270.2 374.7 271.9 375.7 273.4 374.3L287.8 365.5 284.6 379.1C284.2 381.1 285.6 382.6 286.7 383.2 288.2 383.2 289.9 382.7 290.5 381.6 290.5 381.6 290.8 381.1 290.8 381.1L296 361.2 315.7 349.4 304.6 394.5C304.2 396.5 305.6 398 306.7 398.6 308.1 398.7 309.9 398.2 310.5 397.1 310.5 397.1 310.8 396.5 310.8 396.5L323.3 344.9 363.8 320.5 364.7 367.8 327.6 405.8C326.1 407.2 326.3 409.5 328 410.4 329.4 411.9 331.7 411.7 332.6 410L364.9 376.7 365.4 399.7 351.3 414.5C349.8 415.9 350 418.2 351.7 419.1 353.1 420.6 355.4 420.4 356.3 418.7L366.2 408.9 366.3 425.8C366.2 427.2 368.2 429 369.6 429 371 429.1 372.2 428.3 372.8 427.2 373.1 426.6 373.5 426.1 373.2 425.2L373.1 408.3 383 418.2C384.3 419.6 386.6 419.5 387.6 417.8 387.6 417.8 387.9 417.2 387.9 417.2 388.5 416.1 388 414.4 387.2 413.2L372.3 399.1 371.8 376.1 405.1 408.5C406.5 410 408.8 409.8 409.7 408.1 409.7 408.1 410 407.5 410 407.5 410.7 406.4 410.2 404.7 409.4 403.5L371.4 366.4 370.5 319.1 411.9 342 426.7 393.3C427.2 395.1 428.9 396 430.6 395.5 432.3 395 433.3 393.3 432.8 391.6L420.3 346.7 440.5 357.8 446 377C446.5 378.7 448.2 379.6 449.9 379.1S452.6 377 452.1 375.2L448.3 362.2 462.9 370.2C464.6 371.2 466.3 370.7 467.2 369 468.2 367.3 467.7 365.6 466 364.6L451.4 356.6 464.5 352.8C465.3 352.6 466.2 352.3 466.8 351.2S467.2 349.2 467 348.3C466.5 346.6 464.8 345.7 463 346.2L443.9 351.7 423.7 340.5 469 327.5C469.8 327.3 470.7 327 471.3 325.9 471.6 325.3 471.7 323.9 471.5 323 471 321.3 469.3 320.4 467.5 320.9L416.2 335.6 374.8 312.7 415.3 288.3 466.9 300.8C468.4 300.8 470.1 300.3 470.7 299.2 470.7 299.2 471 298.7 471 298.7 471.4 296.7 470 295.2 468.9 294.6L423.8 283.5 443.5 271.7 463.4 276.9C464.8 276.9 466.5 276.4 467.2 275.3 467.2 275.3 467.5 274.7 467.5 274.7 467.8 272.8 466.5 271.3 465.3 270.6L451.7 267.5 466.1 258.6C466.4 258.1 467.3 257.8 467.6 257.3 468.2 256.2 468.3 254.7 467.5 253.5 466.1 252.1 464.4 251.1 463 252.5L448.6 261.3 451.7 247.7C452.1 245.7 450.7 244.2 449.6 243.6 447.6 243.3 446.1 244.6 445.5 245.7L440.4 265.6 420.7 277.4 431.7 232.3C432.1 230.3 430.7 228.8 429.6 228.2 427 228.9 424.9 230 424.6 232Z" fill="rgba(51, 121, 194, 0.58)"></path><path d="M1235.5 207.7L1243.9 228.5 1230.4 227.1C1229 226.9 1227.3 228 1226.7 229.9 1226.9 231.7 1228.1 233.4 1229.9 233.2L1246.6 235.4 1253.8 251.3 1218.9 246.5C1217.1 246.8 1215.5 247.9 1215.2 249.3 1215.1 251.6 1216.2 253.3 1218 253.1L1256.6 258.3 1266.9 282.9 1237.1 275.6 1252.2 302.3 1225.7 299.1 1210.3 263.3C1210.6 262.7 1210.1 262.4 1209.6 262 1208.6 261.2 1207.2 260.9 1205.9 261.6 1204.6 262.2 1204 264.1 1204.2 265.9L1218.3 298.2 1201 295.6 1194.3 280.1C1194.2 279.2 1193.7 278.8 1193.2 278.4 1192.6 278 1191.2 277.7 1190 278.4 1188.7 279 1188 280.9 1188.7 282.2L1193.6 294.8 1171.3 292.4C1169.4 291.7 1168.2 293.2 1167.6 295.2 1167.3 296.6 1168.5 298.2 1170.8 298.4L1192.6 301.3 1184.5 312C1183.4 313.5 1184.1 315.7 1185.1 316.5 1186.7 317.7 1188.5 317.4 1189.6 315.9L1200.1 302.1 1217.3 304.8 1196.4 332.3C1195.3 333.8 1195.5 335.6 1197.1 336.8 1198.1 337.6 1200.4 337.7 1201.5 336.2L1224.8 305.6 1251.2 308.8 1230.5 330.8 1260.7 331.2 1244.5 352.7 1206.3 347.8C1204 347.7 1202.9 349.2 1202.6 350.6 1202.4 352 1203.5 353.7 1205.4 354.4L1240.2 358.3 1229.8 372 1212.6 370.3C1210.7 369.6 1209 370.8 1208.9 373.1 1208.6 374.5 1209.8 376.2 1212.1 376.3L1225.1 378.2 1211.6 396C1210.4 397.5 1210.7 399.3 1212.2 400.5S1215.5 401.4 1216.7 399.9L1230.2 382 1235.5 394.1C1236.3 396.3 1238.2 396.9 1239.5 396.3 1241.7 395.5 1242.3 393.6 1241.2 391.9L1234.9 375.9 1245.3 362.1 1258.4 394.6C1259.6 396.3 1261.5 396.9 1262.8 396.3 1265 395.5 1265.6 393.6 1264.5 391.9L1249.6 356.5 1265.8 335.1 1274.4 364.1 1290 338.2 1300.2 362.8 1277 393.4C1275.9 394.9 1276.6 397.1 1277.6 397.9 1279.2 399.1 1281 398.8 1282.1 397.3L1303.4 369.2 1310.2 385.7 1299.8 399.4C1298.6 401 1298.9 402.7 1300.4 403.9 1301.4 404.7 1303.7 404.8 1304.9 403.3L1313 392.6 1321.7 412.9C1322.5 415 1324.4 415.7 1326.1 414.5 1327.3 413.9 1328.5 412.4 1327.4 410.7L1319 389.9 1332.5 391.3C1333.9 391.5 1335.5 390.4 1335.8 389 1336.1 387.6 1335.4 386.3 1334.9 385.9 1334.4 385.5 1333.9 385.1 1333 385.3L1316.2 383 1309 367.1 1343.9 371.9C1345.7 371.6 1347.4 370.5 1347.7 369.1 1347.9 367.7 1347.3 366.4 1346.3 365.6 1345.8 365.2 1345.8 365.2 1344.9 365.4L1306.3 360.2 1296 335.5 1325.8 342.9 1310.7 316.2 1337.2 319.4 1352.6 355.2C1353.2 356.4 1354.8 357.6 1357 356.9 1358.2 356.2 1358.9 354.3 1358.6 352.5L1344.6 320.2 1361.9 322.8 1368.6 338.4C1368.8 340.1 1370.7 340.8 1372.9 340 1374.2 339.4 1374.9 337.5 1374.6 335.7L1369.3 323.6 1391.6 326.1C1393.5 326.7 1394.6 325.2 1395.3 323.3 1395.2 322.4 1394.5 321.1 1394 320.7 1393.5 320.3 1393 319.9 1392.1 320L1370.2 317.1 1378.4 306.4C1379.5 304.9 1378.8 302.7 1377.7 301.9L1377.7 301.9C1376.2 300.8 1374.4 301 1373.3 302.5L1362.8 316.3 1345.5 313.7 1366.4 286.1C1367.6 284.6 1367.3 282.8 1365.8 281.6S1362.5 280.7 1361.3 282.3L1338.1 312.8 1311.6 309.6 1332.4 287.6 1302.2 287.2 1318.4 265.8 1356.5 270.6C1358.8 270.7 1360 269.2 1360.3 267.8 1360.5 266.4 1359.4 264.7 1357.5 264.1L1323.1 259.6 1333.1 246.4 1350.2 248.1C1352.2 248.8 1353.8 247.6 1354 245.3 1354.2 243.9 1353.1 242.3 1351.2 241.6L1337.7 240.3 1351.3 222.4C1352.4 220.9 1352.2 219.1 1350.7 217.9S1347.3 217 1346.2 218.6L1332.6 236.4 1327.3 224.3C1327.2 223.4 1326.7 223.1 1326.2 222.7 1325.2 221.9 1324.3 222 1323.4 222.1 1321.2 222.9 1320.6 224.8 1321.7 226.5L1328 242.5 1317.6 256.3 1304.4 223.8C1303.9 223.4 1303.4 223.1 1302.9 222.7 1301.9 221.9 1301 222 1300.1 222.1 1297.9 222.9 1297.3 224.8 1298.4 226.5L1313.3 261.9 1297.1 283.3 1288.5 254.3 1272.9 280.2 1262.7 255.6 1285.9 225C1287 223.5 1286.3 221.3 1285.2 220.5 1283.7 219.4 1281.9 219.6 1280.8 221.1L1259.9 248.7 1252.7 232.8 1263.1 219C1264.3 217.5 1264 215.7 1262.5 214.5S1259.2 213.6 1258 215.1L1249.9 225.8 1241.2 205.6C1241 204.7 1240.5 204.3 1240 203.9 1239.5 203.5 1238.1 203.2 1236.8 203.9 1235.5 204.5 1234.4 206 1235.5 207.7ZM1286.5 269.7L1293.4 293.4 1318.1 293.7 1301 312 1313.1 333.2 1289 327.8 1276.4 348.7 1269.4 325 1244.7 324.8 1261.5 306.9 1249.8 285.2 1273.5 291.1 1286.5 269.7Z" fill="rgba(51, 121, 194, 0.58)"></path><path d="M957.7 124.5L945.4 122.2 950.6 115.6C951.2 115 951.2 113.7 950.4 112.7 949.4 112.2 948.1 112.3 947.5 112.9L940.4 121.5 929 119.3 943.5 102C944.4 100.9 944.3 99.6 943.3 99.1 942.5 98.1 941.2 98.2 940.4 99.3L924.4 118.4 914 116.7 905.5 93.8 911.4 86.6 937.5 91.5C937.9 91.3 938.2 91.2 938.6 91 939 90.9 939.6 90.3 939.8 89.7 940.2 88.3 939.4 87.4 938.1 87.4L914.3 82.9 921.8 74.2 934 76.1C934.1 76.5 934.5 76.4 934.9 76.2 935.6 76 936.2 75.3 936.3 74.4 936.4 73.5 935.6 72.5 934.6 72.1L924.7 70.6 933.8 59.6C934.5 58.9 934.4 57.6 933.6 56.7 932.6 56.2 931.3 56.2 930.7 56.9L922.2 67.3 919.3 59.4C918.9 58.2 917.5 57.9 916.7 58.2 915.6 58.6 914.7 59.8 915.2 60.9L918.9 71 911.4 79.7 903.7 58.7C903.3 57.6 902.3 57.1 901.1 57.5 900 57.9 899.5 59 899.9 60.1L908.5 83.4 902.4 91.2 878.2 86.8 875.1 78.2 891.3 58.6C892.3 57.8 892.1 56.2 891.1 55.7 890.3 54.7 889.2 55.1 888.2 55.9L873.4 73.7 869.4 62.8 876.9 54.1C877.5 53.4 877.3 51.8 876.6 51.2S874.3 50.8 873.4 51.5L867.7 58.3 862.9 45.2C862.5 44 861.1 43.7 860 44.1 859.2 44.4 858.4 45.6 858.8 46.7L863.6 59.8 854.6 58.5C853.7 58.4 852.6 58.8 852.2 60.2 852.1 61.1 853.1 62.4 854 62.5L865.3 64.3 869.3 75.2 846.5 71.2C845.2 71.3 844.1 71.7 843.8 73.1 843.7 74 844.6 75.3 845.5 75.4L870.9 79.7 874.1 88.4 858.5 107.3 848.8 105.3 840.3 82.1C839.8 80.9 838.8 80.5 837.7 80.9 836.6 81.3 835.7 82.4 836.1 83.6L843.9 104.6 832.5 102.8 828.8 92.7C828.4 91.5 827.4 91.1 826.2 91.5 825.1 91.9 824.6 92.9 825.1 94L828 101.9 814.7 99.5C813.8 99.4 812.5 100.4 812.4 101.3 812.4 102.5 812.8 103.7 814.1 103.6L827.8 106.2 821.6 113.6C821.1 114.7 821.2 115.9 821.8 116.5 822.5 117.2 823.4 117.3 824.1 117 824.1 117 824.5 116.8 824.7 116.3L832.8 107 844.1 108.8 828.9 127.6C827.9 128.4 827.9 129.6 829.1 130.5 829.6 130.7 830.1 131 830.9 130.7 831.2 130.5 831.6 130.4 832 130.3L848.7 109.6 857.9 111.4 866.3 134.3 859.4 142.3 834.9 138.2C833.5 137.8 832.5 138.6 832.5 139.9 832.1 140.9 832.9 141.9 834.3 142.2L856.5 146 849.2 155.1 838.3 153.1C837.4 153 836.4 153.8 835.9 154.8 836 156.1 836.4 157.2 837.6 157.2L845.9 158.8 838 168.6C837 169.3 837.4 170.5 838.2 171.5 838.7 171.7 839.6 171.8 840.4 171.5 840.4 171.5 840.7 171.4 841.1 171.2L849.6 160.9 853.1 170.2C853.4 171 854.5 171.8 855.7 171.4 856.8 171 857.1 169.6 856.9 168.9L852.6 157.2 859.9 148.1 868.3 171C868.7 172.2 870.1 172.5 871.2 172.1S872.9 170.6 872.4 169.5L863.2 144.4 869.4 137 893.6 141.3 897.2 151 880.6 170.8C880.1 171.8 880.1 173.1 880.9 174.1 881.4 174.3 882.3 174.4 883.1 174.1 883.5 174 883.8 173.9 884.1 173.3L898.8 155.5 902.8 166.4 895.5 175.5C894.9 176.2 895 177.4 895.7 178.4 896.8 178.9 898 178.9 898.6 178.2L904.5 170.9 908.9 183C909.2 183.7 910.7 184.4 911.5 184.1 912.6 183.7 913.3 182.2 913 181.4L908.6 169.4 917.4 171.3C917.8 171.2 918.2 171 918.5 170.9 919.3 170.6 919.9 170 920.1 169.4 920.1 168.2 919.3 167.2 918.3 166.7L907 164.9 903 154 925.7 158C927.1 158.3 928.1 157.6 928.2 156.7 928.6 155.3 927.8 154.3 926.7 153.8L901.3 149.5 897.7 139.8 913.3 120.8 922.9 122.4 932.1 147.6C932.5 148.7 933.6 149.2 934.7 148.7 935.8 148.3 936.3 147.3 935.9 146.2L927.5 123.3 938.9 125.5 943.2 137.1C943.5 137.8 945 138.6 946.1 138.1 947.3 137.7 947.6 136.3 947.3 135.6L943.9 126.2 957.1 128.6C957.5 128.4 957.5 128.4 957.9 128.3 958.6 128 959.2 127.4 959.5 126.9 959.4 125.6 958.6 124.6 957.7 124.5ZM896.1 135.3L894.2 137.2 891.9 136.8 872.3 133.3 870 132.9 869.2 130.6 862.4 112.3 861.6 110 863.1 108.2 875.8 92.9 877.2 91 879.9 91.3 899.1 94.9 901.8 95.2 902.6 97.5 909.4 115.9 910.2 118.1 908.4 120.1 896.1 135.3Z" fill="rgba(51, 121, 194, 0.58)"></path><path d="M484.7 94.7L495.7 92.6 493.8 99C493.5 99.7 493.9 100.6 494.8 101.1 495.7 101.2 496.6 100.8 496.7 99.9L499.4 91.9 507.9 89.8 502.2 106.5C502.2 107.4 502.6 108.3 503.2 108.6 504.4 108.9 505.3 108.5 505.3 107.6L511.5 89.1 524.6 86.4 518.2 100.3 532.7 95.4 528.7 108.1 509.6 112.3C509.4 112.1 509.2 112.3 508.9 112.5 508.5 113 508.2 113.6 508.4 114.3 508.6 115 509.5 115.5 510.4 115.6L527.6 111.7 524.6 119.9 516.4 121.8C515.9 121.7 515.7 122 515.4 122.2 515.2 122.4 514.9 123.1 515.1 123.7 515.3 124.4 516.2 124.9 516.9 124.7L523.5 123.5 520.2 134.2C519.7 135.1 520.4 135.8 521.3 136.3 521.9 136.6 522.9 136.2 523.1 135L526.6 124.6 531.1 129.6C531.8 130.3 532.9 130.1 533.4 129.7 534.1 129.1 534.2 128.2 533.5 127.4L527.7 121 530.7 112.8 542.2 125.6C542.9 126.3 543.8 126.4 544.5 125.8 545 125.3 545.2 124.2 544.6 123.5L531.8 109.2 535.8 96.5 544.7 108.8 547.8 94 556.7 104 550.8 122.2C550.5 123.4 551.1 124.1 551.8 124.3 552.5 124.6 553.4 124.2 553.9 123.3L559.1 106.6 564.9 113 562.4 121.3C561.9 122.1 562.3 123.1 563.4 123.4 564.1 123.6 565 123.2 565.3 122.1L567.4 115.9 574.9 124.2C575.6 124.9 576.5 125 577.2 124.3S578 122.8 577.3 122.1L569.8 113.7 576.2 112.3C577.4 112.1 577.9 111.2 577.7 110.5 577.5 109.4 576.7 108.9 575.7 109.3L567.3 110.9 561.5 104.5 578.7 101.1C579.6 100.7 580.1 99.8 579.9 99.1 579.7 97.9 578.8 97.4 577.9 97.8L559.1 101.8 550.1 91.8 565.2 90.4 553.9 80.3 567 77.6 579.8 91.8C580.5 92.5 581.6 92.4 582.1 92 582.8 91.3 582.8 90.4 582.2 89.7L570.4 76.6 579.1 74.8 584.9 81.2C585.6 81.9 586.5 82 587.2 81.3 587.7 80.9 587.9 79.8 587.3 79.1L582.8 74.1 593.6 71.7C594.7 71.5 595.2 70.7 594.8 69.7 594.6 69.1 594 68.3 593.1 68.7L582.1 70.9 584 64.4C584.3 63.7 583.9 62.8 583.2 62.6 582.5 62.3 581.8 62.5 581.6 62.7 581.4 62.9 581.1 63.1 581.1 63.6L578.4 71.6 569.9 73.6 575.6 56.9C575.6 56 575.2 55.1 574.5 54.8 573.9 54.6 573.2 54.8 572.7 55.2 572.5 55.4 572.5 55.4 572.4 55.9L566.2 74.3 553.2 77 559.6 63.1 545.1 68 549.1 55.3 568.2 51.1C568.9 50.9 569.6 50.3 569.4 49.1 569.2 48.4 568.3 47.9 567.4 47.9L550.2 51.7 553.2 43.5 561.4 41.7C562.3 41.7 562.8 40.9 562.7 39.7 562.5 39 561.6 38.5 560.7 38.5L554.3 39.9 557.5 29.2C558 28.4 557.4 27.6 556.5 27.1 556.1 27.1 555.4 27.3 555.1 27.5 554.9 27.7 554.7 28 554.6 28.4L551.1 38.9 546.6 33.9C546 33.2 544.9 33.3 544.4 33.8L544.4 33.8C543.7 34.4 543.6 35.3 544.3 36L550 42.4 547.1 50.7 535.6 37.8C534.9 37.1 534 37.1 533.3 37.7S532.5 39.2 533.2 40L546 54.2 541.9 66.9 533.1 54.7 530 69.5 521 59.5 527 41.2C527.3 40.1 526.6 39.4 526 39.1 525.3 38.9 524.4 39.3 523.9 40.1L518.5 56.6 512.9 50.4 515.4 42.2C515.9 41.3 515.5 40.4 514.4 40.1 513.7 39.8 512.8 40.2 512.3 41.1L510.3 47.6 502.9 39.3C502.2 38.5 501.3 38.5 500.6 39.1S499.8 40.7 500.5 41.4L508 49.7 501.5 51.2C501.1 51.2 500.9 51.4 500.6 51.6 500.1 52 500.1 52.5 500.1 52.9 500.3 54.1 501.1 54.6 502.1 54.2L510.5 52.6 516.3 59 499.1 62.4C498.9 62.6 498.7 62.8 498.4 63 497.9 63.5 497.9 63.9 497.9 64.4 498.1 65.5 498.9 66 499.9 65.6L518.7 61.6 527.6 71.6 512.6 73.1 523.9 83.2 510.8 85.9 498 71.6C497.3 70.9 496.2 71.1 495.7 71.5 495 72.1 494.9 73 495.6 73.8L507.1 86.6 498.6 88.7 492.9 82.2C492.2 81.5 491.3 81.5 490.6 82.1S489.8 83.7 490.5 84.4L495 89.4 484.2 91.7C483.8 91.7 483.5 91.9 483.3 92.1 483 92.4 482.8 93 483 93.7 483.2 94.4 483.8 95.1 484.7 94.7ZM520 75.5L532.3 74.3 534.7 62.2 542.1 72.4 553.6 68.5 548.7 79.8 557.8 87.9 545.5 89.1 543.1 101.2 535.9 91.3 524.1 95 529.3 83.9 520 75.5Z" fill="rgba(51, 121, 194, 0.58)"></path><path d="M334.1 555.3L311.6 541.2 306.5 518.1 329.1 525.2 341.2 548.8C341.2 548.8 341.4 549 341.4 549 341.9 549.5 342.8 549.5 343.5 549.3 344.4 548.9 344.7 547.8 344 547.1L333.3 526.5 344.3 529.9 349.1 538.9C349.1 538.9 349.3 539.2 349.3 539.2 349.8 539.6 350.7 539.7 351.4 539.5 352.3 539.1 352.5 537.9 351.9 537.2L348.8 531 356.8 533.6C357.5 533.9 358.6 533.2 358.9 532.6 359.4 531.7 358.5 530.7 357.9 530.5L349.8 527.9 356.1 524.7C357 524.3 357.3 523.2 356.6 522.5 356.2 521.6 355.1 521.3 354.4 521.9L345.3 526.8 334.6 523.1 355.2 512.5C356.1 512.1 356.4 510.9 355.8 510.2 355.4 509.3 354.2 509 353.5 509.7L329.9 521.8 307.3 514.7 325 498.5 351.7 499.6C352.6 499.7 353.3 499 353.3 498.1 353.4 497.2 352.7 496.5 351.8 496.5L328.3 495.5 336.8 487.7 346.8 488.1C347.7 488.1 348.4 487.5 348.4 486.6 348.4 485.7 347.8 485 346.9 484.9L340.1 484.6 346.7 478.6C347.6 478.2 347.5 477 346.8 476.3 346.2 475.6 345.3 475.6 344.5 476.2L338.4 481.9 338.7 475.1C338.7 474.2 338.1 473.5 337.2 473.4S335.6 474 335.5 474.9L335.1 484.9 326.6 492.7 327.6 469.2C327.7 468.3 327 467.6 326.1 467.5 325.2 467.5 324.5 468.1 324.5 469L323.3 495.7 305.9 511.7 300.8 488.6 314.6 466.8C315.1 465.9 314.7 465 314 464.3 313.1 463.8 312.2 464.2 311.5 464.9L299.1 484.5 296.7 473.3 302.2 464.7C302.7 463.8 302.3 462.9 301.7 462.2 300.8 461.7 299.9 462.1 299.4 462.5L295.7 468.5 293.8 460.2C293.6 459.6 292.8 458.6 291.8 459 290.9 459.4 290.2 460.1 290.6 461L292.5 469.2 286.6 465.6C285.7 465.1 284.8 465.5 284.3 466 284 466.6 284 467.5 284.4 468 284.4 468 284.6 468.2 284.6 468.2L293.2 473.8 295.7 485 276.1 472.6C275.2 472.1 274.3 472.5 273.8 473 273.5 473.6 273.5 474.5 273.9 475 273.9 475 274.2 475.3 274.2 475.3L296.6 489.4 301.8 512.4 279.2 505.4 267.1 481.7C266.7 480.8 265.5 480.5 264.8 481.2 263.9 481.6 263.6 482.7 264.3 483.4L275 504.1 264 500.6 259.2 491.6C258.8 490.7 257.6 490.4 256.9 491.1 256 491.5 255.7 492.6 256.4 493.3L259.5 499.5 251.5 496.9C250.8 496.7 249.7 497.3 249.4 498 249.1 498.6 249.3 499.3 249.8 499.8 250 500 250.2 500.3 250.7 500.3L258.7 502.9 252.5 506C251.5 506.4 251.3 507.6 251.9 508.3 251.9 508.3 252.1 508.5 252.1 508.5 252.6 509 253.5 509 254.1 508.8L263.2 504 274.1 507.4 253.5 518.1C252.6 518.5 252.3 519.6 253 520.3 253 520.3 253.2 520.6 253.2 520.6 253.6 521 254.5 521.1 255.2 520.9L278.8 508.7 301.4 515.8 284 531.8 257.3 530.7C256.4 530.7 255.7 531.3 255.6 532.2 255.6 533.1 256.2 533.8 257.1 533.9L280.4 535.1 271.9 542.9 262 542.5C261.1 542.4 260.4 543.1 260.3 544S260.9 545.6 261.9 545.6L268.6 545.9 262.5 551.5C261.8 552.2 261.8 553.1 262.4 553.8 263.1 554.5 264 554.5 264.7 553.9L270.8 548.3 270.5 555C270.5 555.5 270.5 556 270.9 556.4S271.8 556.9 272.2 556.9C273.1 557 273.9 556.3 273.9 555.4L274.3 545.5 282.8 537.7 281.8 561.2C281.8 561.6 281.8 562.1 282.2 562.6 282.4 562.8 283.1 563.1 283.5 563.1 284.4 563.1 285.1 562.5 285.2 561.6L286.3 534.9 303.8 518.9 308.9 542 294.8 564.5C294.5 565.1 294.5 566 294.9 566.5 294.9 566.5 295.1 566.7 295.1 566.7 296 567.2 297 566.8 297.4 566.4L309.8 546.8 312.3 558 306.7 566.6C306.5 567.2 306.4 568.1 306.8 568.6 306.8 568.6 307.1 568.8 307.1 568.8 307.9 569.3 308.9 568.9 309.3 568.5L313 562.5 314.9 570.8C315.1 571 315.1 571.4 315.3 571.7 315.8 572.2 316.4 572.4 317.1 572.2 318 571.8 318.7 571.2 318.3 570.2L316.4 562 322.4 565.6C323.3 566.1 324.2 565.7 324.7 565.3 325.1 564.4 324.7 563.5 324.3 563L315.7 557.4 313.2 546.2 332.9 558.6C333.8 559.1 334.7 558.7 335.1 558.3 335.2 556.9 335 555.8 334.1 555.3Z" fill="rgba(51, 121, 194, 0.58)"></path><path d="M1281.5 522.3L1271.4 522.2 1274.7 516.3C1275.1 515.7 1274.9 514.7 1274.1 514 1273.2 513.8 1272.2 514 1271.8 514.6L1267.4 522.3 1258.1 522.2 1267.2 506.6C1267.7 505.5 1267.5 504.5 1266.6 504.3 1265.9 503.6 1264.9 503.8 1264.4 504.9L1254.4 522.1 1245.9 522.2 1236.1 505.3 1239.8 498.8 1261 499.1C1261.3 498.9 1261.5 498.7 1261.8 498.6 1262.1 498.4 1262.5 497.8 1262.6 497.4 1262.7 496.2 1261.9 495.6 1260.9 495.8L1241.6 495.5 1246.2 487.6 1256.1 487.5C1256.3 487.7 1256.6 487.6 1256.8 487.4 1257.4 487.1 1257.8 486.5 1257.7 485.8 1257.7 485.1 1256.9 484.4 1256.1 484.2L1248.1 484.4 1253.8 474.4C1254.1 473.8 1253.9 472.8 1253.2 472.2 1252.3 471.9 1251.3 472.1 1250.9 472.7L1245.6 482.1 1242.3 476.3C1241.8 475.4 1240.6 475.4 1240.1 475.7 1239.2 476.2 1238.7 477.2 1239.2 478L1243.5 485.5 1238.9 493.4 1229.9 477.9C1229.4 477.1 1228.5 476.8 1227.7 477.3 1226.9 477.8 1226.6 478.7 1227.1 479.5L1237 496.7 1233.3 503.6 1213.7 503.5 1210 497.2 1220.1 479.5C1220.8 478.7 1220.4 477.5 1219.5 477.2 1218.8 476.6 1217.9 477 1217.3 477.8L1208.1 493.8 1203.4 485.8 1208.1 477.9C1208.5 477.3 1208.1 476.1 1207.5 475.7S1205.7 475.6 1205 476.4L1201.5 482.5 1195.9 472.8C1195.4 472 1194.2 471.9 1193.4 472.4 1192.9 472.7 1192.3 473.7 1192.8 474.6L1198.4 484.2 1191.1 484.4C1190.4 484.5 1189.6 484.9 1189.5 486.1 1189.6 486.8 1190.5 487.7 1191.2 487.7L1200.4 487.6 1205 495.6 1186.5 495.6C1185.5 495.8 1184.7 496.3 1184.6 497.4 1184.7 498.1 1185.6 499.1 1186.3 499L1206.9 498.9 1210.6 505.3 1200.9 522.4 1193 522.1 1183.1 505C1182.6 504.1 1181.7 503.9 1180.9 504.4 1180.1 504.9 1179.5 505.9 1180 506.7L1189 522.2 1179.8 522.4 1175.5 514.9C1175 514.1 1174.2 513.8 1173.3 514.3 1172.5 514.8 1172.3 515.7 1172.7 516.5L1176.1 522.3 1165.3 522.3C1164.6 522.3 1163.7 523.2 1163.7 523.9 1163.9 524.9 1164.4 525.8 1165.4 525.5L1176.6 525.7 1172.7 532.4C1172.5 533.3 1172.7 534.3 1173.3 534.7 1173.9 535.1 1174.6 535 1175.1 534.7 1175.1 534.7 1175.4 534.5 1175.5 534.1L1180.6 525.6 1189.8 525.5 1180.3 542.4C1179.7 543.2 1179.9 544.2 1180.9 544.7 1181.3 544.8 1181.8 544.9 1182.3 544.6 1182.6 544.4 1182.9 544.3 1183.2 544.1L1193.5 525.6 1201 525.7 1210.7 542.6 1206.5 549.9 1186.5 549.9C1185.4 549.9 1184.7 550.6 1184.9 551.6 1184.7 552.5 1185.4 553.1 1186.6 553.2L1204.7 553.1 1200.1 561.3 1191.2 561.2C1190.5 561.3 1189.9 562.1 1189.6 562.9 1189.8 563.9 1190.3 564.7 1191.3 564.5L1198 564.7 1193.1 573.5C1192.5 574.2 1192.9 575.1 1193.7 575.7 1194.1 575.8 1194.9 575.8 1195.4 575.5 1195.4 575.5 1195.7 575.3 1196 575.2L1201.3 565.8 1205.3 572.7C1205.6 573.3 1206.6 573.8 1207.5 573.3 1208.3 572.8 1208.4 571.7 1208 571.1L1203.1 562.5 1207.6 554.4 1217.4 571.3C1217.9 572.1 1219 572.2 1219.8 571.7S1220.9 570.3 1220.4 569.5L1209.7 550.9 1213.6 544.3 1233.2 544.3 1237.4 551.5 1227 569.4C1226.8 570.3 1227 571.3 1227.7 571.9 1228.2 572 1228.9 572 1229.4 571.7 1229.7 571.5 1230 571.4 1230.1 570.9L1239.3 554.9 1244 562.9 1239.4 571.1C1239 571.7 1239.3 572.7 1240 573.3 1240.9 573.6 1241.9 573.4 1242.3 572.8L1245.9 566.2 1251 575.1C1251.3 575.6 1252.6 576 1253.2 575.7 1254 575.2 1254.4 573.9 1254.1 573.3L1248.9 564.5 1256.1 564.7C1256.4 564.6 1256.7 564.4 1256.9 564.3 1257.5 563.9 1257.9 563.3 1258 562.9 1257.8 561.9 1257.1 561.2 1256.2 561L1247 561.1 1242.4 553.1 1260.9 553.1C1262 553.2 1262.7 552.4 1262.6 551.7 1262.7 550.6 1261.9 549.9 1261.1 549.7L1240.4 549.8 1236.3 542.6 1246 525.5 1253.7 525.5 1264.5 544C1264.9 544.8 1265.8 545.1 1266.6 544.6 1267.5 544.1 1267.7 543.2 1267.2 542.4L1257.4 525.5 1266.8 525.7 1271.7 534.3C1272.1 534.8 1273.4 535.2 1274.2 534.7 1275 534.2 1275.1 533 1274.8 532.5L1270.8 525.6 1281.5 525.6C1281.8 525.5 1281.8 525.5 1282.1 525.3 1282.7 525 1283 524.4 1283.2 523.9 1283 523 1282.2 522.3 1281.5 522.3ZM1234.3 539.3L1233.2 541.1 1231.3 541 1215.4 541 1213.5 541 1212.6 539.3 1204.7 525.7 1203.7 524.1 1204.6 522.4 1212.5 508.6 1213.4 507 1215.6 506.9 1231.2 507 1233.4 506.9 1234.3 508.6 1242.2 522.2 1243.2 523.8 1242 525.6 1234.3 539.3Z" fill="rgba(51, 121, 194, 0.58)"></path><path d="M1006.6 427.9L980.9 434.6 960.6 422.6 981.2 411 1006.7 418.3C1006.7 418.3 1007 418.3 1007 418.3 1007.6 418.3 1008.3 417.6 1008.6 417 1008.9 416 1008.3 415.1 1007.4 415.1L985 408.8 995 403.1 1004.9 405.8C1004.9 405.8 1005.2 405.8 1005.2 405.8 1005.9 405.8 1006.5 405.1 1006.8 404.5 1007.2 403.5 1006.5 402.6 1005.6 402.6L998.9 400.6 1006.3 396.5C1006.9 396.2 1007.2 394.9 1006.9 394.3 1006.6 393.3 1005.3 393.3 1004.7 393.6L997.3 397.7 999.3 391C999.6 390 999 389.1 998 389.1 997.1 388.7 996.1 389.4 996.1 390.3L993.4 400.2 983.5 405.5 989.8 383.2C990.1 382.3 989.5 381.3 988.5 381.3 987.5 380.9 986.6 381.6 986.6 382.5L979.3 408.1 958.7 419.7 958.9 395.7 978 377C978.6 376.4 978.6 375.4 978 374.8 977.4 374.1 976.4 374.1 975.8 374.8L959 391.2 959.1 379.7 966.2 372.7C966.8 372.1 966.8 371.1 966.2 370.5 965.6 369.8 964.6 369.8 964 370.5L959.1 375.2 959.2 366.3C959.5 365.3 958.6 364.7 957.6 364.6 956.7 364.6 956 365.3 956 366.2L955.9 374.5 951.2 369.7C950.5 369.1 949.6 369 948.9 369.7S948.3 371.3 948.9 371.9L955.9 379 955.8 390.5 939.3 373.7C938.7 373.1 937.7 373.1 937.1 373.7 936.4 374.4 936.4 375.3 937 376L955.7 395 955.5 418.7 935.1 406.7 928.7 381.6C928.3 380.7 927.4 380.3 926.4 380.3 925.5 380.6 925.1 381.6 925.1 382.6L931 405 921.1 399.2 918.7 389.2C918.3 388.2 917.4 387.9 916.4 387.9 915.5 388.2 915.1 389.2 915.1 389.8L917 396.6 909.7 392.3C909 392 907.7 392 907.4 392.9 907.1 393.9 907.1 394.9 908 395.2L915.4 399.4 908.6 401.3C907.6 401.6 907.3 402.5 907.3 403.2 907.6 403.8 908.3 404.5 908.9 404.5 908.9 404.5 909.2 404.5 909.2 404.5L919.2 402 929 407.9 906.6 413.7C905.6 414 905.3 415 905.3 415.6 905.6 416.3 906.2 416.9 906.9 416.9 906.9 416.9 907.2 416.9 907.2 416.9L932.8 410.2 953.2 422.2 932.6 433.8 907.1 426.5C906.1 426.2 905.2 426.8 905.1 427.8 904.8 428.8 905.4 429.7 906.4 429.7L928.7 436 918.8 441.7 908.9 439C907.9 438.7 906.9 439.3 906.9 440.3 906.6 441.3 907.2 442.2 908.2 442.2L914.9 444.2 907.5 448.3C906.9 448.6 906.5 449.9 906.8 450.5 907.1 451.2 907.8 451.5 908.4 451.5 908.7 451.5 909.1 451.5 909.4 451.2L916.8 447.1 914.8 453.8C914.5 454.8 915.1 455.7 916.1 455.7 916.1 455.7 916.4 455.8 916.4 455.8 917 455.8 917.7 455.1 918 454.5L920.7 444.6 930.6 438.9 924.3 461.3C924 462.2 924.6 463.2 925.6 463.2 925.6 463.2 925.9 463.2 925.9 463.2 926.5 463.2 927.2 462.6 927.5 461.9L934.8 436.4 955.4 424.8 955.2 448.5 936.1 467.2C935.5 467.8 935.4 468.7 936.1 469.4 936.7 470 937.7 470 938.3 469.4L955.1 453.3 955 464.8 947.9 471.8C947.3 472.4 947.2 473.3 947.9 474S949.5 474.6 950.1 474L955 469.3 954.9 477.6C954.9 478.5 955.5 479.2 956.5 479.2 957.4 479.2 958.1 478.6 958.1 477.6L958.2 469.3 962.9 474.1C963.2 474.5 963.6 474.8 964.2 474.8S965.2 474.5 965.5 474.2C966.1 473.5 966.1 472.6 965.5 471.9L958.5 464.8 958.6 453.3 975.1 470.1C975.4 470.4 975.8 470.8 976.4 470.8 976.7 470.8 977.4 470.5 977.7 470.1 978.3 469.5 978.3 468.5 977.7 467.9L959 448.8 959.3 425.1 979.6 437.2 986.4 462.9C986.7 463.5 987.3 464.2 988 464.2 988 464.2 988.3 464.2 988.3 464.2 989.3 463.9 989.6 462.9 989.6 462.3L983.7 439.8 993.6 445.7 996.1 455.6C996.4 456.2 997 456.9 997.7 456.9 997.7 456.9 998 456.9 998 456.9 998.9 456.6 999.3 455.6 999.3 455L997.4 448.3 1004.7 452.5C1005.1 452.5 1005.4 452.8 1005.7 452.8 1006.3 452.8 1007 452.5 1007.3 451.9 1007.6 450.9 1007.6 450 1006.7 449.6L999.4 445.4 1006.1 443.5C1007.1 443.2 1007.4 442.3 1007.4 441.6 1007.1 440.7 1006.1 440.3 1005.5 440.3L995.6 442.8 985.7 436.9 1008.2 431.1C1009.1 430.8 1009.4 429.8 1009.5 429.2 1008.5 428.2 1007.6 427.6 1006.6 427.9Z" fill="rgba(51, 121, 194, 0.58)"></path></g><defs><mask id="SvgjsMask1023"><rect width="1440" height="560" fill="#ffffff"></rect></mask><linearGradient x1="84.72%" y1="139.29%" x2="15.28%" y2="-39.29%" gradientUnits="userSpaceOnUse" id="SvgjsLinearGradient1024"><stop stop-color="#0e2a47" offset="0"></stop><stop stop-color="#00459e" offset="1"></stop></linearGradient><filter id="SvgjsFilter1025"><feGaussianBlur stdDeviation="1"></feGaussianBlur></filter></defs></svg>